{
	"asset":{
		"generator":"Khronos glTF Blender I/O v4.2.60",
		"version":"2.0"
	},
	"extensionsUsed":[
		"KHR_materials_unlit"
	],
	"scene":0,
	"scenes":[
		{
			"name":"Scene",
			"nodes":[
				12
			]
		}
	],
	"nodes":[
		{
			"name":"Cube_0"
		},
		{
			"mesh":0,
			"name":"Object_10"
		},
		{
			"mesh":1,
			"name":"Object_11"
		},
		{
			"mesh":2,
			"name":"Object_12"
		},
		{
			"mesh":3,
			"name":"Object_13"
		},
		{
			"mesh":4,
			"name":"Object_6"
		},
		{
			"mesh":5,
			"name":"Object_7"
		},
		{
			"mesh":6,
			"name":"Object_8"
		},
		{
			"mesh":7,
			"name":"Object_9"
		},
		{
			"children":[
				1,
				2,
				3,
				4,
				5,
				6,
				7,
				8
			],
			"name":"OKINAWA207-W02-1-1_1"
		},
		{
			"children":[
				0,
				9
			],
			"name":"GLTF_SceneRootNode",
			"rotation":[
				0.70710688829422,
				0,
				0,
				0.7071066498756409
			]
		},
		{
			"children":[
				10
			],
			"name":"root"
		},
		{
			"children":[
				11
			],
			"name":"Sketchfab_model",
			"rotation":[
				-0.70710688829422,
				0,
				0,
				0.7071066498756409
			]
		}
	],
	"materials":[
		{
			"doubleSided":true,
			"extensions":{
				"KHR_materials_unlit":{}
			},
			"name":"OKINAWA207-W02-1-1",
			"pbrMetallicRoughness":{
				"baseColorTexture":{
					"index":0
				},
				"metallicFactor":0,
				"roughnessFactor":0.9
			}
		}
	],
	"meshes":[
		{
			"name":"Object_5.003",
			"primitives":[
				{
					"attributes":{
						"POSITION":0,
						"NORMAL":1,
						"TEXCOORD_0":2
					},
					"indices":3,
					"material":0
				}
			]
		},
		{
			"name":"Object_6.003",
			"primitives":[
				{
					"attributes":{
						"POSITION":4,
						"NORMAL":5,
						"TEXCOORD_0":6
					},
					"indices":7,
					"material":0
				}
			]
		},
		{
			"name":"Object_7.003",
			"primitives":[
				{
					"attributes":{
						"POSITION":8,
						"NORMAL":9,
						"TEXCOORD_0":10
					},
					"indices":11,
					"material":0
				}
			]
		},
		{
			"name":"Object_8.003",
			"primitives":[
				{
					"attributes":{
						"POSITION":12,
						"NORMAL":13,
						"TEXCOORD_0":14
					},
					"indices":15,
					"material":0
				}
			]
		},
		{
			"name":"Object_1.003",
			"primitives":[
				{
					"attributes":{
						"POSITION":16,
						"NORMAL":17,
						"TEXCOORD_0":18
					},
					"indices":19,
					"material":0
				}
			]
		},
		{
			"name":"Object_2.003",
			"primitives":[
				{
					"attributes":{
						"POSITION":20,
						"NORMAL":21,
						"TEXCOORD_0":22
					},
					"indices":23,
					"material":0
				}
			]
		},
		{
			"name":"Object_3.003",
			"primitives":[
				{
					"attributes":{
						"POSITION":24,
						"NORMAL":25,
						"TEXCOORD_0":26
					},
					"indices":27,
					"material":0
				}
			]
		},
		{
			"name":"Object_4.003",
			"primitives":[
				{
					"attributes":{
						"POSITION":28,
						"NORMAL":29,
						"TEXCOORD_0":30
					},
					"indices":31,
					"material":0
				}
			]
		}
	],
	"textures":[
		{
			"sampler":0,
			"source":0
		}
	],
	"images":[
		{
			"mimeType":"image/jpeg",
			"name":"OKINAWA207-W02-1-1_baseColor",
			"uri":"OKINAWA207-W02-1-1_baseColor.jpg"
		}
	],
	"accessors":[
		{
			"bufferView":0,
			"componentType":5126,
			"count":65805,
			"max":[
				0.08614619076251984,
				0.09419189393520355,
				0.18550460040569305
			],
			"min":[
				-0.07571142166852951,
				-0.06387793272733688,
				-0.17556801438331604
			],
			"type":"VEC3"
		},
		{
			"bufferView":1,
			"componentType":5126,
			"count":65805,
			"type":"VEC3"
		},
		{
			"bufferView":2,
			"componentType":5126,
			"count":65805,
			"type":"VEC2"
		},
		{
			"bufferView":3,
			"componentType":5125,
			"count":242319,
			"type":"SCALAR"
		},
		{
			"bufferView":4,
			"componentType":5126,
			"count":65796,
			"max":[
				0.08430327475070953,
				0.0953013002872467,
				0.18866057693958282
			],
			"min":[
				-0.07578659057617188,
				-0.06384403258562088,
				-0.17414884269237518
			],
			"type":"VEC3"
		},
		{
			"bufferView":5,
			"componentType":5126,
			"count":65796,
			"type":"VEC3"
		},
		{
			"bufferView":6,
			"componentType":5126,
			"count":65796,
			"type":"VEC2"
		},
		{
			"bufferView":7,
			"componentType":5125,
			"count":215718,
			"type":"SCALAR"
		},
		{
			"bufferView":8,
			"componentType":5126,
			"count":66088,
			"max":[
				0.08619561046361923,
				0.09547470510005951,
				0.18898946046829224
			],
			"min":[
				-0.07599622756242752,
				-0.06387793272733688,
				-0.17545738816261292
			],
			"type":"VEC3"
		},
		{
			"bufferView":9,
			"componentType":5126,
			"count":66088,
			"type":"VEC3"
		},
		{
			"bufferView":10,
			"componentType":5126,
			"count":66088,
			"type":"VEC2"
		},
		{
			"bufferView":11,
			"componentType":5125,
			"count":144408,
			"type":"SCALAR"
		},
		{
			"bufferView":12,
			"componentType":5126,
			"count":56997,
			"max":[
				0.08539050817489624,
				0.09547470510005951,
				0.1887495517730713
			],
			"min":[
				-0.07579953968524933,
				-0.06384403258562088,
				-0.1752796769142151
			],
			"type":"VEC3"
		},
		{
			"bufferView":13,
			"componentType":5126,
			"count":56997,
			"type":"VEC3"
		},
		{
			"bufferView":14,
			"componentType":5126,
			"count":56997,
			"type":"VEC2"
		},
		{
			"bufferView":15,
			"componentType":5123,
			"count":79323,
			"type":"SCALAR"
		},
		{
			"bufferView":16,
			"componentType":5126,
			"count":65852,
			"max":[
				0.08383205533027649,
				0.0684407502412796,
				0.18898946046829224
			],
			"min":[
				-0.07582405209541321,
				-0.06375548988580704,
				-0.17563870549201965
			],
			"type":"VEC3"
		},
		{
			"bufferView":17,
			"componentType":5126,
			"count":65852,
			"type":"VEC3"
		},
		{
			"bufferView":18,
			"componentType":5126,
			"count":65852,
			"type":"VEC2"
		},
		{
			"bufferView":19,
			"componentType":5125,
			"count":310689,
			"type":"SCALAR"
		},
		{
			"bufferView":20,
			"componentType":5126,
			"count":65831,
			"max":[
				0.08523985743522644,
				0.09364913403987885,
				0.18888017535209656
			],
			"min":[
				-0.07599622756242752,
				-0.05920839682221413,
				-0.17488160729408264
			],
			"type":"VEC3"
		},
		{
			"bufferView":21,
			"componentType":5126,
			"count":65831,
			"type":"VEC3"
		},
		{
			"bufferView":22,
			"componentType":5126,
			"count":65831,
			"type":"VEC2"
		},
		{
			"bufferView":23,
			"componentType":5125,
			"count":291009,
			"type":"SCALAR"
		},
		{
			"bufferView":24,
			"componentType":5126,
			"count":65833,
			"max":[
				0.08534608781337738,
				0.09547470510005951,
				0.1884109079837799
			],
			"min":[
				-0.07599622756242752,
				-0.061678241938352585,
				-0.17563870549201965
			],
			"type":"VEC3"
		},
		{
			"bufferView":25,
			"componentType":5126,
			"count":65833,
			"type":"VEC3"
		},
		{
			"bufferView":26,
			"componentType":5126,
			"count":65833,
			"type":"VEC2"
		},
		{
			"bufferView":27,
			"componentType":5125,
			"count":276681,
			"type":"SCALAR"
		},
		{
			"bufferView":28,
			"componentType":5126,
			"count":65780,
			"max":[
				0.08421176671981812,
				0.09518501907587051,
				0.18797039985656738
			],
			"min":[
				-0.0754411444067955,
				-0.059434033930301666,
				-0.17444755136966705
			],
			"type":"VEC3"
		},
		{
			"bufferView":29,
			"componentType":5126,
			"count":65780,
			"type":"VEC3"
		},
		{
			"bufferView":30,
			"componentType":5126,
			"count":65780,
			"type":"VEC2"
		},
		{
			"bufferView":31,
			"componentType":5125,
			"count":267756,
			"type":"SCALAR"
		}
	],
	"bufferViews":[
		{
			"buffer":0,
			"byteLength":789660,
			"byteOffset":0,
			"target":34962
		},
		{
			"buffer":0,
			"byteLength":789660,
			"byteOffset":789660,
			"target":34962
		},
		{
			"buffer":0,
			"byteLength":526440,
			"byteOffset":1579320,
			"target":34962
		},
		{
			"buffer":0,
			"byteLength":969276,
			"byteOffset":2105760,
			"target":34963
		},
		{
			"buffer":0,
			"byteLength":789552,
			"byteOffset":3075036,
			"target":34962
		},
		{
			"buffer":0,
			"byteLength":789552,
			"byteOffset":3864588,
			"target":34962
		},
		{
			"buffer":0,
			"byteLength":526368,
			"byteOffset":4654140,
			"target":34962
		},
		{
			"buffer":0,
			"byteLength":862872,
			"byteOffset":5180508,
			"target":34963
		},
		{
			"buffer":0,
			"byteLength":793056,
			"byteOffset":6043380,
			"target":34962
		},
		{
			"buffer":0,
			"byteLength":793056,
			"byteOffset":6836436,
			"target":34962
		},
		{
			"buffer":0,
			"byteLength":528704,
			"byteOffset":7629492,
			"target":34962
		},
		{
			"buffer":0,
			"byteLength":577632,
			"byteOffset":8158196,
			"target":34963
		},
		{
			"buffer":0,
			"byteLength":683964,
			"byteOffset":8735828,
			"target":34962
		},
		{
			"buffer":0,
			"byteLength":683964,
			"byteOffset":9419792,
			"target":34962
		},
		{
			"buffer":0,
			"byteLength":455976,
			"byteOffset":10103756,
			"target":34962
		},
		{
			"buffer":0,
			"byteLength":158646,
			"byteOffset":10559732,
			"target":34963
		},
		{
			"buffer":0,
			"byteLength":790224,
			"byteOffset":10718380,
			"target":34962
		},
		{
			"buffer":0,
			"byteLength":790224,
			"byteOffset":11508604,
			"target":34962
		},
		{
			"buffer":0,
			"byteLength":526816,
			"byteOffset":12298828,
			"target":34962
		},
		{
			"buffer":0,
			"byteLength":1242756,
			"byteOffset":12825644,
			"target":34963
		},
		{
			"buffer":0,
			"byteLength":789972,
			"byteOffset":14068400,
			"target":34962
		},
		{
			"buffer":0,
			"byteLength":789972,
			"byteOffset":14858372,
			"target":34962
		},
		{
			"buffer":0,
			"byteLength":526648,
			"byteOffset":15648344,
			"target":34962
		},
		{
			"buffer":0,
			"byteLength":1164036,
			"byteOffset":16174992,
			"target":34963
		},
		{
			"buffer":0,
			"byteLength":789996,
			"byteOffset":17339028,
			"target":34962
		},
		{
			"buffer":0,
			"byteLength":789996,
			"byteOffset":18129024,
			"target":34962
		},
		{
			"buffer":0,
			"byteLength":526664,
			"byteOffset":18919020,
			"target":34962
		},
		{
			"buffer":0,
			"byteLength":1106724,
			"byteOffset":19445684,
			"target":34963
		},
		{
			"buffer":0,
			"byteLength":789360,
			"byteOffset":20552408,
			"target":34962
		},
		{
			"buffer":0,
			"byteLength":789360,
			"byteOffset":21341768,
			"target":34962
		},
		{
			"buffer":0,
			"byteLength":526240,
			"byteOffset":22131128,
			"target":34962
		},
		{
			"buffer":0,
			"byteLength":1071024,
			"byteOffset":22657368,
			"target":34963
		}
	],
	"samplers":[
		{
			"magFilter":9729,
			"minFilter":9987
		}
	],
	"buffers":[
		{
			"byteLength":23728392,
			"uri":"scene.bin"
		}
	]
}
