{
	"asset":{
		"generator":"Khronos glTF Blender I/O v4.2.60",
		"version":"2.0"
	},
	"extensionsUsed":[
		"KHR_materials_unlit"
	],
	"scene":0,
	"scenes":[
		{
			"name":"Scene",
			"nodes":[
				22
			]
		}
	],
	"nodes":[
		{
			"name":"Cube_0"
		},
		{
			"mesh":0,
			"name":"Object_10"
		},
		{
			"mesh":1,
			"name":"Object_11"
		},
		{
			"mesh":2,
			"name":"Object_12"
		},
		{
			"mesh":3,
			"name":"Object_13"
		},
		{
			"mesh":4,
			"name":"Object_14"
		},
		{
			"mesh":5,
			"name":"Object_15"
		},
		{
			"mesh":6,
			"name":"Object_16"
		},
		{
			"mesh":7,
			"name":"Object_17"
		},
		{
			"mesh":8,
			"name":"Object_18"
		},
		{
			"mesh":9,
			"name":"Object_19"
		},
		{
			"mesh":10,
			"name":"Object_20"
		},
		{
			"mesh":11,
			"name":"Object_21"
		},
		{
			"mesh":12,
			"name":"Object_22"
		},
		{
			"mesh":13,
			"name":"Object_23"
		},
		{
			"mesh":14,
			"name":"Object_6"
		},
		{
			"mesh":15,
			"name":"Object_7"
		},
		{
			"mesh":16,
			"name":"Object_8"
		},
		{
			"mesh":17,
			"name":"Object_9"
		},
		{
			"children":[
				1,
				2,
				3,
				4,
				5,
				6,
				7,
				8,
				9,
				10,
				11,
				12,
				13,
				14,
				15,
				16,
				17,
				18
			],
			"name":"QS1496-W20-1-2_1"
		},
		{
			"children":[
				0,
				19
			],
			"name":"GLTF_SceneRootNode",
			"rotation":[
				0.70710688829422,
				0,
				0,
				0.7071066498756409
			]
		},
		{
			"children":[
				20
			],
			"name":"root"
		},
		{
			"children":[
				21
			],
			"name":"Sketchfab_model",
			"rotation":[
				-0.70710688829422,
				0,
				0,
				0.7071066498756409
			]
		}
	],
	"materials":[
		{
			"doubleSided":true,
			"extensions":{
				"KHR_materials_unlit":{}
			},
			"name":"QS1496-W20-1-2",
			"pbrMetallicRoughness":{
				"baseColorTexture":{
					"index":0
				},
				"metallicFactor":0,
				"roughnessFactor":0.9
			}
		}
	],
	"meshes":[
		{
			"name":"Object_5",
			"primitives":[
				{
					"attributes":{
						"POSITION":0,
						"NORMAL":1,
						"TEXCOORD_0":2
					},
					"indices":3,
					"material":0
				}
			]
		},
		{
			"name":"Object_6",
			"primitives":[
				{
					"attributes":{
						"POSITION":4,
						"NORMAL":5,
						"TEXCOORD_0":6
					},
					"indices":7,
					"material":0
				}
			]
		},
		{
			"name":"Object_7",
			"primitives":[
				{
					"attributes":{
						"POSITION":8,
						"NORMAL":9,
						"TEXCOORD_0":10
					},
					"indices":11,
					"material":0
				}
			]
		},
		{
			"name":"Object_8",
			"primitives":[
				{
					"attributes":{
						"POSITION":12,
						"NORMAL":13,
						"TEXCOORD_0":14
					},
					"indices":15,
					"material":0
				}
			]
		},
		{
			"name":"Object_9",
			"primitives":[
				{
					"attributes":{
						"POSITION":16,
						"NORMAL":17,
						"TEXCOORD_0":18
					},
					"indices":19,
					"material":0
				}
			]
		},
		{
			"name":"Object_10",
			"primitives":[
				{
					"attributes":{
						"POSITION":20,
						"NORMAL":21,
						"TEXCOORD_0":22
					},
					"indices":23,
					"material":0
				}
			]
		},
		{
			"name":"Object_11",
			"primitives":[
				{
					"attributes":{
						"POSITION":24,
						"NORMAL":25,
						"TEXCOORD_0":26
					},
					"indices":27,
					"material":0
				}
			]
		},
		{
			"name":"Object_12",
			"primitives":[
				{
					"attributes":{
						"POSITION":28,
						"NORMAL":29,
						"TEXCOORD_0":30
					},
					"indices":31,
					"material":0
				}
			]
		},
		{
			"name":"Object_13",
			"primitives":[
				{
					"attributes":{
						"POSITION":32,
						"NORMAL":33,
						"TEXCOORD_0":34
					},
					"indices":35,
					"material":0
				}
			]
		},
		{
			"name":"Object_14",
			"primitives":[
				{
					"attributes":{
						"POSITION":36,
						"NORMAL":37,
						"TEXCOORD_0":38
					},
					"indices":39,
					"material":0
				}
			]
		},
		{
			"name":"Object_15",
			"primitives":[
				{
					"attributes":{
						"POSITION":40,
						"NORMAL":41,
						"TEXCOORD_0":42
					},
					"indices":43,
					"material":0
				}
			]
		},
		{
			"name":"Object_16",
			"primitives":[
				{
					"attributes":{
						"POSITION":44,
						"NORMAL":45,
						"TEXCOORD_0":46
					},
					"indices":47,
					"material":0
				}
			]
		},
		{
			"name":"Object_17",
			"primitives":[
				{
					"attributes":{
						"POSITION":48,
						"NORMAL":49,
						"TEXCOORD_0":50
					},
					"indices":51,
					"material":0
				}
			]
		},
		{
			"name":"Object_18",
			"primitives":[
				{
					"attributes":{
						"POSITION":52,
						"NORMAL":53,
						"TEXCOORD_0":54
					},
					"indices":55,
					"material":0
				}
			]
		},
		{
			"name":"Object_1",
			"primitives":[
				{
					"attributes":{
						"POSITION":56,
						"NORMAL":57,
						"TEXCOORD_0":58
					},
					"indices":59,
					"material":0
				}
			]
		},
		{
			"name":"Object_2",
			"primitives":[
				{
					"attributes":{
						"POSITION":60,
						"NORMAL":61,
						"TEXCOORD_0":62
					},
					"indices":63,
					"material":0
				}
			]
		},
		{
			"name":"Object_3",
			"primitives":[
				{
					"attributes":{
						"POSITION":64,
						"NORMAL":65,
						"TEXCOORD_0":66
					},
					"indices":67,
					"material":0
				}
			]
		},
		{
			"name":"Object_4",
			"primitives":[
				{
					"attributes":{
						"POSITION":68,
						"NORMAL":69,
						"TEXCOORD_0":70
					},
					"indices":71,
					"material":0
				}
			]
		}
	],
	"textures":[
		{
			"sampler":0,
			"source":0
		}
	],
	"images":[
		{
			"mimeType":"image/jpeg",
			"name":"QS1496-W20-1-2_baseColor",
			"uri":"QS1496-W20-1-2_baseColor.jpg"
		}
	],
	"accessors":[
		{
			"bufferView":0,
			"componentType":5126,
			"count":65841,
			"max":[
				0.10049594938755035,
				0.15758761763572693,
				0.09497769176959991
			],
			"min":[
				-0.10485545545816422,
				-0.11852005124092102,
				-0.09160514920949936
			],
			"type":"VEC3"
		},
		{
			"bufferView":1,
			"componentType":5126,
			"count":65841,
			"type":"VEC3"
		},
		{
			"bufferView":2,
			"componentType":5126,
			"count":65841,
			"type":"VEC2"
		},
		{
			"bufferView":3,
			"componentType":5125,
			"count":253821,
			"type":"SCALAR"
		},
		{
			"bufferView":4,
			"componentType":5126,
			"count":65856,
			"max":[
				0.10154250264167786,
				0.15076862275600433,
				0.09944835305213928
			],
			"min":[
				-0.10214933753013611,
				-0.1288439929485321,
				-0.09134204685688019
			],
			"type":"VEC3"
		},
		{
			"bufferView":5,
			"componentType":5126,
			"count":65856,
			"type":"VEC3"
		},
		{
			"bufferView":6,
			"componentType":5126,
			"count":65856,
			"type":"VEC2"
		},
		{
			"bufferView":7,
			"componentType":5125,
			"count":242616,
			"type":"SCALAR"
		},
		{
			"bufferView":8,
			"componentType":5126,
			"count":65853,
			"max":[
				0.0971657857298851,
				0.15643304586410522,
				0.09721260517835617
			],
			"min":[
				-0.10497292876243591,
				-0.1339479386806488,
				-0.09234093874692917
			],
			"type":"VEC3"
		},
		{
			"bufferView":9,
			"componentType":5126,
			"count":65853,
			"type":"VEC3"
		},
		{
			"bufferView":10,
			"componentType":5126,
			"count":65853,
			"type":"VEC2"
		},
		{
			"bufferView":11,
			"componentType":5125,
			"count":233130,
			"type":"SCALAR"
		},
		{
			"bufferView":12,
			"componentType":5126,
			"count":65820,
			"max":[
				0.10129141807556152,
				0.15845656394958496,
				0.0989677757024765
			],
			"min":[
				-0.10476063191890717,
				-0.13861624896526337,
				-0.09308165311813354
			],
			"type":"VEC3"
		},
		{
			"bufferView":13,
			"componentType":5126,
			"count":65820,
			"type":"VEC3"
		},
		{
			"bufferView":14,
			"componentType":5126,
			"count":65820,
			"type":"VEC2"
		},
		{
			"bufferView":15,
			"componentType":5125,
			"count":228645,
			"type":"SCALAR"
		},
		{
			"bufferView":16,
			"componentType":5126,
			"count":65764,
			"max":[
				0.09885791689157486,
				0.15242746472358704,
				0.09948185831308365
			],
			"min":[
				-0.10214145481586456,
				-0.14008066058158875,
				-0.09180968999862671
			],
			"type":"VEC3"
		},
		{
			"bufferView":17,
			"componentType":5126,
			"count":65764,
			"type":"VEC3"
		},
		{
			"bufferView":18,
			"componentType":5126,
			"count":65764,
			"type":"VEC2"
		},
		{
			"bufferView":19,
			"componentType":5125,
			"count":219753,
			"type":"SCALAR"
		},
		{
			"bufferView":20,
			"componentType":5126,
			"count":65798,
			"max":[
				0.10154250264167786,
				0.1579769253730774,
				0.09812130033969879
			],
			"min":[
				-0.10487451404333115,
				-0.14519552886486053,
				-0.0916188508272171
			],
			"type":"VEC3"
		},
		{
			"bufferView":21,
			"componentType":5126,
			"count":65798,
			"type":"VEC3"
		},
		{
			"bufferView":22,
			"componentType":5126,
			"count":65798,
			"type":"VEC2"
		},
		{
			"bufferView":23,
			"componentType":5125,
			"count":210339,
			"type":"SCALAR"
		},
		{
			"bufferView":24,
			"componentType":5126,
			"count":65803,
			"max":[
				0.09786060452461243,
				0.15221357345581055,
				0.09639810025691986
			],
			"min":[
				-0.10073305666446686,
				-0.14486297965049744,
				-0.08804138749837875
			],
			"type":"VEC3"
		},
		{
			"bufferView":25,
			"componentType":5126,
			"count":65803,
			"type":"VEC3"
		},
		{
			"bufferView":26,
			"componentType":5126,
			"count":65803,
			"type":"VEC2"
		},
		{
			"bufferView":27,
			"componentType":5125,
			"count":221841,
			"type":"SCALAR"
		},
		{
			"bufferView":28,
			"componentType":5126,
			"count":65756,
			"max":[
				0.10134906321763992,
				0.15581552684307098,
				0.09881643205881119
			],
			"min":[
				-0.10245178639888763,
				-0.14335453510284424,
				-0.09122652560472488
			],
			"type":"VEC3"
		},
		{
			"bufferView":29,
			"componentType":5126,
			"count":65756,
			"type":"VEC3"
		},
		{
			"bufferView":30,
			"componentType":5126,
			"count":65756,
			"type":"VEC2"
		},
		{
			"bufferView":31,
			"componentType":5125,
			"count":187992,
			"type":"SCALAR"
		},
		{
			"bufferView":32,
			"componentType":5126,
			"count":65775,
			"max":[
				0.10036786645650864,
				0.15291529893875122,
				0.09943050146102905
			],
			"min":[
				-0.10413382202386856,
				-0.14519082009792328,
				-0.09359448403120041
			],
			"type":"VEC3"
		},
		{
			"bufferView":33,
			"componentType":5126,
			"count":65775,
			"type":"VEC3"
		},
		{
			"bufferView":34,
			"componentType":5126,
			"count":65775,
			"type":"VEC2"
		},
		{
			"bufferView":35,
			"componentType":5125,
			"count":159372,
			"type":"SCALAR"
		},
		{
			"bufferView":36,
			"componentType":5126,
			"count":66044,
			"max":[
				0.0999138355255127,
				0.15619070827960968,
				0.09963876754045486
			],
			"min":[
				-0.09613411873579025,
				-0.1432548612356186,
				-0.09033041447401047
			],
			"type":"VEC3"
		},
		{
			"bufferView":37,
			"componentType":5126,
			"count":66044,
			"type":"VEC3"
		},
		{
			"bufferView":38,
			"componentType":5126,
			"count":66044,
			"type":"VEC2"
		},
		{
			"bufferView":39,
			"componentType":5125,
			"count":125325,
			"type":"SCALAR"
		},
		{
			"bufferView":40,
			"componentType":5126,
			"count":66133,
			"max":[
				0.10160233080387115,
				0.15846607089042664,
				0.08495206385850906
			],
			"min":[
				-0.09377877414226532,
				-0.09116236865520477,
				-0.0657472014427185
			],
			"type":"VEC3"
		},
		{
			"bufferView":41,
			"componentType":5126,
			"count":66133,
			"type":"VEC3"
		},
		{
			"bufferView":42,
			"componentType":5126,
			"count":66133,
			"type":"VEC2"
		},
		{
			"bufferView":43,
			"componentType":5125,
			"count":118992,
			"type":"SCALAR"
		},
		{
			"bufferView":44,
			"componentType":5126,
			"count":66066,
			"max":[
				0.08916918188333511,
				0.14939293265342712,
				0.08208178728818893
			],
			"min":[
				-0.10512284934520721,
				-0.14428405463695526,
				-0.09359448403120041
			],
			"type":"VEC3"
		},
		{
			"bufferView":45,
			"componentType":5126,
			"count":66066,
			"type":"VEC3"
		},
		{
			"bufferView":46,
			"componentType":5126,
			"count":66066,
			"type":"VEC2"
		},
		{
			"bufferView":47,
			"componentType":5125,
			"count":118752,
			"type":"SCALAR"
		},
		{
			"bufferView":48,
			"componentType":5126,
			"count":65910,
			"max":[
				0.0998123288154602,
				0.1583462357521057,
				0.09910766035318375
			],
			"min":[
				-0.1033731997013092,
				-0.14300039410591125,
				-0.09227430820465088
			],
			"type":"VEC3"
		},
		{
			"bufferView":49,
			"componentType":5126,
			"count":65910,
			"type":"VEC3"
		},
		{
			"bufferView":50,
			"componentType":5126,
			"count":65910,
			"type":"VEC2"
		},
		{
			"bufferView":51,
			"componentType":5125,
			"count":95922,
			"type":"SCALAR"
		},
		{
			"bufferView":52,
			"componentType":5126,
			"count":44648,
			"max":[
				0.10089275240898132,
				0.15686683356761932,
				0.09908098727464676
			],
			"min":[
				-0.10444272309541702,
				-0.14452417194843292,
				-0.09335397183895111
			],
			"type":"VEC3"
		},
		{
			"bufferView":53,
			"componentType":5126,
			"count":44648,
			"type":"VEC3"
		},
		{
			"bufferView":54,
			"componentType":5126,
			"count":44648,
			"type":"VEC2"
		},
		{
			"bufferView":55,
			"componentType":5123,
			"count":52038,
			"type":"SCALAR"
		},
		{
			"bufferView":56,
			"componentType":5126,
			"count":65949,
			"max":[
				0.10145172476768494,
				0.15846607089042664,
				0.08581855893135071
			],
			"min":[
				-0.1011572927236557,
				-0.14591418206691742,
				-0.09084202349185944
			],
			"type":"VEC3"
		},
		{
			"bufferView":57,
			"componentType":5126,
			"count":65949,
			"type":"VEC3"
		},
		{
			"bufferView":58,
			"componentType":5126,
			"count":65949,
			"type":"VEC2"
		},
		{
			"bufferView":59,
			"componentType":5125,
			"count":278355,
			"type":"SCALAR"
		},
		{
			"bufferView":60,
			"componentType":5126,
			"count":65946,
			"max":[
				0.10160233080387115,
				0.1579769253730774,
				0.09908098727464676
			],
			"min":[
				-0.10119839012622833,
				-0.09444208443164825,
				-0.0912991464138031
			],
			"type":"VEC3"
		},
		{
			"bufferView":61,
			"componentType":5126,
			"count":65946,
			"type":"VEC3"
		},
		{
			"bufferView":62,
			"componentType":5126,
			"count":65946,
			"type":"VEC2"
		},
		{
			"bufferView":63,
			"componentType":5125,
			"count":280941,
			"type":"SCALAR"
		},
		{
			"bufferView":64,
			"componentType":5126,
			"count":65892,
			"max":[
				0.10014549642801285,
				0.15845656394958496,
				0.09955114126205444
			],
			"min":[
				-0.10497292876243591,
				-0.09476953744888306,
				-0.09359448403120041
			],
			"type":"VEC3"
		},
		{
			"bufferView":65,
			"componentType":5126,
			"count":65892,
			"type":"VEC3"
		},
		{
			"bufferView":66,
			"componentType":5126,
			"count":65892,
			"type":"VEC2"
		},
		{
			"bufferView":67,
			"componentType":5125,
			"count":270186,
			"type":"SCALAR"
		},
		{
			"bufferView":68,
			"componentType":5126,
			"count":65961,
			"max":[
				0.09991462528705597,
				0.1583845317363739,
				0.09862770140171051
			],
			"min":[
				-0.10011836141347885,
				-0.13811443746089935,
				-0.09293043613433838
			],
			"type":"VEC3"
		},
		{
			"bufferView":69,
			"componentType":5126,
			"count":65961,
			"type":"VEC3"
		},
		{
			"bufferView":70,
			"componentType":5126,
			"count":65961,
			"type":"VEC2"
		},
		{
			"bufferView":71,
			"componentType":5125,
			"count":262206,
			"type":"SCALAR"
		}
	],
	"bufferViews":[
		{
			"buffer":0,
			"byteLength":790092,
			"byteOffset":0,
			"target":34962
		},
		{
			"buffer":0,
			"byteLength":790092,
			"byteOffset":790092,
			"target":34962
		},
		{
			"buffer":0,
			"byteLength":526728,
			"byteOffset":1580184,
			"target":34962
		},
		{
			"buffer":0,
			"byteLength":1015284,
			"byteOffset":2106912,
			"target":34963
		},
		{
			"buffer":0,
			"byteLength":790272,
			"byteOffset":3122196,
			"target":34962
		},
		{
			"buffer":0,
			"byteLength":790272,
			"byteOffset":3912468,
			"target":34962
		},
		{
			"buffer":0,
			"byteLength":526848,
			"byteOffset":4702740,
			"target":34962
		},
		{
			"buffer":0,
			"byteLength":970464,
			"byteOffset":5229588,
			"target":34963
		},
		{
			"buffer":0,
			"byteLength":790236,
			"byteOffset":6200052,
			"target":34962
		},
		{
			"buffer":0,
			"byteLength":790236,
			"byteOffset":6990288,
			"target":34962
		},
		{
			"buffer":0,
			"byteLength":526824,
			"byteOffset":7780524,
			"target":34962
		},
		{
			"buffer":0,
			"byteLength":932520,
			"byteOffset":8307348,
			"target":34963
		},
		{
			"buffer":0,
			"byteLength":789840,
			"byteOffset":9239868,
			"target":34962
		},
		{
			"buffer":0,
			"byteLength":789840,
			"byteOffset":10029708,
			"target":34962
		},
		{
			"buffer":0,
			"byteLength":526560,
			"byteOffset":10819548,
			"target":34962
		},
		{
			"buffer":0,
			"byteLength":914580,
			"byteOffset":11346108,
			"target":34963
		},
		{
			"buffer":0,
			"byteLength":789168,
			"byteOffset":12260688,
			"target":34962
		},
		{
			"buffer":0,
			"byteLength":789168,
			"byteOffset":13049856,
			"target":34962
		},
		{
			"buffer":0,
			"byteLength":526112,
			"byteOffset":13839024,
			"target":34962
		},
		{
			"buffer":0,
			"byteLength":879012,
			"byteOffset":14365136,
			"target":34963
		},
		{
			"buffer":0,
			"byteLength":789576,
			"byteOffset":15244148,
			"target":34962
		},
		{
			"buffer":0,
			"byteLength":789576,
			"byteOffset":16033724,
			"target":34962
		},
		{
			"buffer":0,
			"byteLength":526384,
			"byteOffset":16823300,
			"target":34962
		},
		{
			"buffer":0,
			"byteLength":841356,
			"byteOffset":17349684,
			"target":34963
		},
		{
			"buffer":0,
			"byteLength":789636,
			"byteOffset":18191040,
			"target":34962
		},
		{
			"buffer":0,
			"byteLength":789636,
			"byteOffset":18980676,
			"target":34962
		},
		{
			"buffer":0,
			"byteLength":526424,
			"byteOffset":19770312,
			"target":34962
		},
		{
			"buffer":0,
			"byteLength":887364,
			"byteOffset":20296736,
			"target":34963
		},
		{
			"buffer":0,
			"byteLength":789072,
			"byteOffset":21184100,
			"target":34962
		},
		{
			"buffer":0,
			"byteLength":789072,
			"byteOffset":21973172,
			"target":34962
		},
		{
			"buffer":0,
			"byteLength":526048,
			"byteOffset":22762244,
			"target":34962
		},
		{
			"buffer":0,
			"byteLength":751968,
			"byteOffset":23288292,
			"target":34963
		},
		{
			"buffer":0,
			"byteLength":789300,
			"byteOffset":24040260,
			"target":34962
		},
		{
			"buffer":0,
			"byteLength":789300,
			"byteOffset":24829560,
			"target":34962
		},
		{
			"buffer":0,
			"byteLength":526200,
			"byteOffset":25618860,
			"target":34962
		},
		{
			"buffer":0,
			"byteLength":637488,
			"byteOffset":26145060,
			"target":34963
		},
		{
			"buffer":0,
			"byteLength":792528,
			"byteOffset":26782548,
			"target":34962
		},
		{
			"buffer":0,
			"byteLength":792528,
			"byteOffset":27575076,
			"target":34962
		},
		{
			"buffer":0,
			"byteLength":528352,
			"byteOffset":28367604,
			"target":34962
		},
		{
			"buffer":0,
			"byteLength":501300,
			"byteOffset":28895956,
			"target":34963
		},
		{
			"buffer":0,
			"byteLength":793596,
			"byteOffset":29397256,
			"target":34962
		},
		{
			"buffer":0,
			"byteLength":793596,
			"byteOffset":30190852,
			"target":34962
		},
		{
			"buffer":0,
			"byteLength":529064,
			"byteOffset":30984448,
			"target":34962
		},
		{
			"buffer":0,
			"byteLength":475968,
			"byteOffset":31513512,
			"target":34963
		},
		{
			"buffer":0,
			"byteLength":792792,
			"byteOffset":31989480,
			"target":34962
		},
		{
			"buffer":0,
			"byteLength":792792,
			"byteOffset":32782272,
			"target":34962
		},
		{
			"buffer":0,
			"byteLength":528528,
			"byteOffset":33575064,
			"target":34962
		},
		{
			"buffer":0,
			"byteLength":475008,
			"byteOffset":34103592,
			"target":34963
		},
		{
			"buffer":0,
			"byteLength":790920,
			"byteOffset":34578600,
			"target":34962
		},
		{
			"buffer":0,
			"byteLength":790920,
			"byteOffset":35369520,
			"target":34962
		},
		{
			"buffer":0,
			"byteLength":527280,
			"byteOffset":36160440,
			"target":34962
		},
		{
			"buffer":0,
			"byteLength":383688,
			"byteOffset":36687720,
			"target":34963
		},
		{
			"buffer":0,
			"byteLength":535776,
			"byteOffset":37071408,
			"target":34962
		},
		{
			"buffer":0,
			"byteLength":535776,
			"byteOffset":37607184,
			"target":34962
		},
		{
			"buffer":0,
			"byteLength":357184,
			"byteOffset":38142960,
			"target":34962
		},
		{
			"buffer":0,
			"byteLength":104076,
			"byteOffset":38500144,
			"target":34963
		},
		{
			"buffer":0,
			"byteLength":791388,
			"byteOffset":38604220,
			"target":34962
		},
		{
			"buffer":0,
			"byteLength":791388,
			"byteOffset":39395608,
			"target":34962
		},
		{
			"buffer":0,
			"byteLength":527592,
			"byteOffset":40186996,
			"target":34962
		},
		{
			"buffer":0,
			"byteLength":1113420,
			"byteOffset":40714588,
			"target":34963
		},
		{
			"buffer":0,
			"byteLength":791352,
			"byteOffset":41828008,
			"target":34962
		},
		{
			"buffer":0,
			"byteLength":791352,
			"byteOffset":42619360,
			"target":34962
		},
		{
			"buffer":0,
			"byteLength":527568,
			"byteOffset":43410712,
			"target":34962
		},
		{
			"buffer":0,
			"byteLength":1123764,
			"byteOffset":43938280,
			"target":34963
		},
		{
			"buffer":0,
			"byteLength":790704,
			"byteOffset":45062044,
			"target":34962
		},
		{
			"buffer":0,
			"byteLength":790704,
			"byteOffset":45852748,
			"target":34962
		},
		{
			"buffer":0,
			"byteLength":527136,
			"byteOffset":46643452,
			"target":34962
		},
		{
			"buffer":0,
			"byteLength":1080744,
			"byteOffset":47170588,
			"target":34963
		},
		{
			"buffer":0,
			"byteLength":791532,
			"byteOffset":48251332,
			"target":34962
		},
		{
			"buffer":0,
			"byteLength":791532,
			"byteOffset":49042864,
			"target":34962
		},
		{
			"buffer":0,
			"byteLength":527688,
			"byteOffset":49834396,
			"target":34962
		},
		{
			"buffer":0,
			"byteLength":1048824,
			"byteOffset":50362084,
			"target":34963
		}
	],
	"samplers":[
		{
			"magFilter":9729,
			"minFilter":9987
		}
	],
	"buffers":[
		{
			"byteLength":51410908,
			"uri":"scene.bin"
		}
	]
}
