{
	"asset":{
		"generator":"Khronos glTF Blender I/O v4.2.60",
		"version":"2.0"
	},
	"extensionsUsed":[
		"KHR_materials_unlit"
	],
	"scene":0,
	"scenes":[
		{
			"name":"Scene",
			"nodes":[
				7
			]
		}
	],
	"nodes":[
		{
			"mesh":0,
			"name":"Object_6"
		},
		{
			"mesh":1,
			"name":"Object_7"
		},
		{
			"mesh":2,
			"name":"Object_8"
		},
		{
			"mesh":3,
			"name":"Object_9"
		},
		{
			"children":[
				0,
				1,
				2,
				3
			],
			"name":"QS1386-W14-2-1_1",
			"rotation":[
				-0.6772909164428711,
				0.1297387033700943,
				-0.6500014066696167,
				0.31928539276123047
			],
			"scale":[
				0.012226328253746033,
				0.012226330116391182,
				0.012226328253746033
			],
			"translation":[
				-0.0011512644123286009,
				0.003597700735554099,
				0.005324598867446184
			]
		},
		{
			"children":[
				4
			],
			"name":"GLTF_SceneRootNode",
			"rotation":[
				0.70710688829422,
				0,
				0,
				0.7071066498756409
			]
		},
		{
			"children":[
				5
			],
			"name":"root"
		},
		{
			"children":[
				6
			],
			"name":"Sketchfab_model",
			"rotation":[
				-0.70710688829422,
				0,
				0,
				0.7071066498756409
			]
		}
	],
	"materials":[
		{
			"doubleSided":true,
			"extensions":{
				"KHR_materials_unlit":{}
			},
			"name":"QS1386-W14-2-1",
			"pbrMetallicRoughness":{
				"baseColorTexture":{
					"index":0
				},
				"metallicFactor":0,
				"roughnessFactor":0.9
			}
		}
	],
	"meshes":[
		{
			"name":"Object_1",
			"primitives":[
				{
					"attributes":{
						"POSITION":0,
						"NORMAL":1,
						"TEXCOORD_0":2
					},
					"indices":3,
					"material":0
				}
			]
		},
		{
			"name":"Object_2",
			"primitives":[
				{
					"attributes":{
						"POSITION":4,
						"NORMAL":5,
						"TEXCOORD_0":6
					},
					"indices":7,
					"material":0
				}
			]
		},
		{
			"name":"Object_3",
			"primitives":[
				{
					"attributes":{
						"POSITION":8,
						"NORMAL":9,
						"TEXCOORD_0":10
					},
					"indices":11,
					"material":0
				}
			]
		},
		{
			"name":"Object_4",
			"primitives":[
				{
					"attributes":{
						"POSITION":12,
						"NORMAL":13,
						"TEXCOORD_0":14
					},
					"indices":15,
					"material":0
				}
			]
		}
	],
	"textures":[
		{
			"sampler":0,
			"source":0
		}
	],
	"images":[
		{
			"mimeType":"image/jpeg",
			"name":"QS1386-W14-2-1_baseColor",
			"uri":"QS1386-W14-2-1_baseColor.jpg"
		}
	],
	"accessors":[
		{
			"bufferView":0,
			"componentType":5126,
			"count":65813,
			"max":[
				1.692320466041565,
				2.6361865997314453,
				2.659310817718506
			],
			"min":[
				-1.8799755573272705,
				-1.9993972778320312,
				-2.272874116897583
			],
			"type":"VEC3"
		},
		{
			"bufferView":1,
			"componentType":5126,
			"count":65813,
			"type":"VEC3"
		},
		{
			"bufferView":2,
			"componentType":5126,
			"count":65813,
			"type":"VEC2"
		},
		{
			"bufferView":3,
			"componentType":5125,
			"count":263391,
			"type":"SCALAR"
		},
		{
			"bufferView":4,
			"componentType":5126,
			"count":65879,
			"max":[
				1.694212555885315,
				2.644807815551758,
				2.694016933441162
			],
			"min":[
				-1.8520785570144653,
				-2.003875732421875,
				-2.233950138092041
			],
			"type":"VEC3"
		},
		{
			"bufferView":5,
			"componentType":5126,
			"count":65879,
			"type":"VEC3"
		},
		{
			"bufferView":6,
			"componentType":5126,
			"count":65879,
			"type":"VEC2"
		},
		{
			"bufferView":7,
			"componentType":5125,
			"count":225627,
			"type":"SCALAR"
		},
		{
			"bufferView":8,
			"componentType":5126,
			"count":65995,
			"max":[
				1.694212555885315,
				2.644807815551758,
				2.6184117794036865
			],
			"min":[
				-1.8799755573272705,
				-2.003875732421875,
				-2.2693710327148438
			],
			"type":"VEC3"
		},
		{
			"bufferView":9,
			"componentType":5126,
			"count":65995,
			"type":"VEC3"
		},
		{
			"bufferView":10,
			"componentType":5126,
			"count":65995,
			"type":"VEC2"
		},
		{
			"bufferView":11,
			"componentType":5125,
			"count":172644,
			"type":"SCALAR"
		},
		{
			"bufferView":12,
			"componentType":5126,
			"count":58977,
			"max":[
				1.694212555885315,
				2.644807815551758,
				2.6853277683258057
			],
			"min":[
				-1.8799755573272705,
				-1.9811792373657227,
				-2.272874116897583
			],
			"type":"VEC3"
		},
		{
			"bufferView":13,
			"componentType":5126,
			"count":58977,
			"type":"VEC3"
		},
		{
			"bufferView":14,
			"componentType":5126,
			"count":58977,
			"type":"VEC2"
		},
		{
			"bufferView":15,
			"componentType":5123,
			"count":95046,
			"type":"SCALAR"
		}
	],
	"bufferViews":[
		{
			"buffer":0,
			"byteLength":789756,
			"byteOffset":0,
			"target":34962
		},
		{
			"buffer":0,
			"byteLength":789756,
			"byteOffset":789756,
			"target":34962
		},
		{
			"buffer":0,
			"byteLength":526504,
			"byteOffset":1579512,
			"target":34962
		},
		{
			"buffer":0,
			"byteLength":1053564,
			"byteOffset":2106016,
			"target":34963
		},
		{
			"buffer":0,
			"byteLength":790548,
			"byteOffset":3159580,
			"target":34962
		},
		{
			"buffer":0,
			"byteLength":790548,
			"byteOffset":3950128,
			"target":34962
		},
		{
			"buffer":0,
			"byteLength":527032,
			"byteOffset":4740676,
			"target":34962
		},
		{
			"buffer":0,
			"byteLength":902508,
			"byteOffset":5267708,
			"target":34963
		},
		{
			"buffer":0,
			"byteLength":791940,
			"byteOffset":6170216,
			"target":34962
		},
		{
			"buffer":0,
			"byteLength":791940,
			"byteOffset":6962156,
			"target":34962
		},
		{
			"buffer":0,
			"byteLength":527960,
			"byteOffset":7754096,
			"target":34962
		},
		{
			"buffer":0,
			"byteLength":690576,
			"byteOffset":8282056,
			"target":34963
		},
		{
			"buffer":0,
			"byteLength":707724,
			"byteOffset":8972632,
			"target":34962
		},
		{
			"buffer":0,
			"byteLength":707724,
			"byteOffset":9680356,
			"target":34962
		},
		{
			"buffer":0,
			"byteLength":471816,
			"byteOffset":10388080,
			"target":34962
		},
		{
			"buffer":0,
			"byteLength":190092,
			"byteOffset":10859896,
			"target":34963
		}
	],
	"samplers":[
		{
			"magFilter":9729,
			"minFilter":9987
		}
	],
	"buffers":[
		{
			"byteLength":11049988,
			"uri":"scene.bin"
		}
	]
}
