{
	"asset":{
		"generator":"Khronos glTF Blender I/O v4.2.60",
		"version":"2.0"
	},
	"extensionsUsed":[
		"KHR_materials_unlit"
	],
	"scene":0,
	"scenes":[
		{
			"name":"Scene",
			"nodes":[
				21
			]
		}
	],
	"nodes":[
		{
			"name":"Cube_0"
		},
		{
			"mesh":0,
			"name":"Object_10"
		},
		{
			"mesh":1,
			"name":"Object_11"
		},
		{
			"mesh":2,
			"name":"Object_12"
		},
		{
			"mesh":3,
			"name":"Object_13"
		},
		{
			"mesh":4,
			"name":"Object_14"
		},
		{
			"mesh":5,
			"name":"Object_15"
		},
		{
			"mesh":6,
			"name":"Object_16"
		},
		{
			"mesh":7,
			"name":"Object_17"
		},
		{
			"mesh":8,
			"name":"Object_18"
		},
		{
			"mesh":9,
			"name":"Object_19"
		},
		{
			"mesh":10,
			"name":"Object_20"
		},
		{
			"mesh":11,
			"name":"Object_21"
		},
		{
			"mesh":12,
			"name":"Object_22"
		},
		{
			"mesh":13,
			"name":"Object_6"
		},
		{
			"mesh":14,
			"name":"Object_7"
		},
		{
			"mesh":15,
			"name":"Object_8"
		},
		{
			"mesh":16,
			"name":"Object_9"
		},
		{
			"children":[
				1,
				2,
				3,
				4,
				5,
				6,
				7,
				8,
				9,
				10,
				11,
				12,
				13,
				14,
				15,
				16,
				17
			],
			"name":"QS1507-W02-1-1_1"
		},
		{
			"children":[
				0,
				18
			],
			"name":"GLTF_SceneRootNode",
			"rotation":[
				0.70710688829422,
				0,
				0,
				0.7071066498756409
			]
		},
		{
			"children":[
				19
			],
			"name":"root"
		},
		{
			"children":[
				20
			],
			"name":"Sketchfab_model",
			"rotation":[
				-0.70710688829422,
				0,
				0,
				0.7071066498756409
			]
		}
	],
	"materials":[
		{
			"doubleSided":true,
			"extensions":{
				"KHR_materials_unlit":{}
			},
			"name":"QS1507-W02-1-1",
			"pbrMetallicRoughness":{
				"baseColorTexture":{
					"index":0
				},
				"metallicFactor":0,
				"roughnessFactor":0.9
			}
		}
	],
	"meshes":[
		{
			"name":"Object_5.002",
			"primitives":[
				{
					"attributes":{
						"POSITION":0,
						"NORMAL":1,
						"TEXCOORD_0":2
					},
					"indices":3,
					"material":0
				}
			]
		},
		{
			"name":"Object_6.002",
			"primitives":[
				{
					"attributes":{
						"POSITION":4,
						"NORMAL":5,
						"TEXCOORD_0":6
					},
					"indices":7,
					"material":0
				}
			]
		},
		{
			"name":"Object_7.002",
			"primitives":[
				{
					"attributes":{
						"POSITION":8,
						"NORMAL":9,
						"TEXCOORD_0":10
					},
					"indices":11,
					"material":0
				}
			]
		},
		{
			"name":"Object_8.002",
			"primitives":[
				{
					"attributes":{
						"POSITION":12,
						"NORMAL":13,
						"TEXCOORD_0":14
					},
					"indices":15,
					"material":0
				}
			]
		},
		{
			"name":"Object_9.002",
			"primitives":[
				{
					"attributes":{
						"POSITION":16,
						"NORMAL":17,
						"TEXCOORD_0":18
					},
					"indices":19,
					"material":0
				}
			]
		},
		{
			"name":"Object_10.002",
			"primitives":[
				{
					"attributes":{
						"POSITION":20,
						"NORMAL":21,
						"TEXCOORD_0":22
					},
					"indices":23,
					"material":0
				}
			]
		},
		{
			"name":"Object_11.002",
			"primitives":[
				{
					"attributes":{
						"POSITION":24,
						"NORMAL":25,
						"TEXCOORD_0":26
					},
					"indices":27,
					"material":0
				}
			]
		},
		{
			"name":"Object_12.002",
			"primitives":[
				{
					"attributes":{
						"POSITION":28,
						"NORMAL":29,
						"TEXCOORD_0":30
					},
					"indices":31,
					"material":0
				}
			]
		},
		{
			"name":"Object_13.002",
			"primitives":[
				{
					"attributes":{
						"POSITION":32,
						"NORMAL":33,
						"TEXCOORD_0":34
					},
					"indices":35,
					"material":0
				}
			]
		},
		{
			"name":"Object_14.002",
			"primitives":[
				{
					"attributes":{
						"POSITION":36,
						"NORMAL":37,
						"TEXCOORD_0":38
					},
					"indices":39,
					"material":0
				}
			]
		},
		{
			"name":"Object_15.002",
			"primitives":[
				{
					"attributes":{
						"POSITION":40,
						"NORMAL":41,
						"TEXCOORD_0":42
					},
					"indices":43,
					"material":0
				}
			]
		},
		{
			"name":"Object_16.002",
			"primitives":[
				{
					"attributes":{
						"POSITION":44,
						"NORMAL":45,
						"TEXCOORD_0":46
					},
					"indices":47,
					"material":0
				}
			]
		},
		{
			"name":"Object_17.002",
			"primitives":[
				{
					"attributes":{
						"POSITION":48,
						"NORMAL":49,
						"TEXCOORD_0":50
					},
					"indices":51,
					"material":0
				}
			]
		},
		{
			"name":"Object_1.002",
			"primitives":[
				{
					"attributes":{
						"POSITION":52,
						"NORMAL":53,
						"TEXCOORD_0":54
					},
					"indices":55,
					"material":0
				}
			]
		},
		{
			"name":"Object_2.002",
			"primitives":[
				{
					"attributes":{
						"POSITION":56,
						"NORMAL":57,
						"TEXCOORD_0":58
					},
					"indices":59,
					"material":0
				}
			]
		},
		{
			"name":"Object_3.002",
			"primitives":[
				{
					"attributes":{
						"POSITION":60,
						"NORMAL":61,
						"TEXCOORD_0":62
					},
					"indices":63,
					"material":0
				}
			]
		},
		{
			"name":"Object_4.002",
			"primitives":[
				{
					"attributes":{
						"POSITION":64,
						"NORMAL":65,
						"TEXCOORD_0":66
					},
					"indices":67,
					"material":0
				}
			]
		}
	],
	"textures":[
		{
			"sampler":0,
			"source":0
		}
	],
	"images":[
		{
			"mimeType":"image/jpeg",
			"name":"QS1507-W02-1-1_baseColor",
			"uri":"QS1507-W02-1-1_baseColor.jpg"
		}
	],
	"accessors":[
		{
			"bufferView":0,
			"componentType":5126,
			"count":65822,
			"max":[
				0.07289527356624603,
				0.04981664940714836,
				0.07031954824924469
			],
			"min":[
				-0.09717617928981781,
				-0.05182968080043793,
				-0.08355780690908432
			],
			"type":"VEC3"
		},
		{
			"bufferView":1,
			"componentType":5126,
			"count":65822,
			"type":"VEC3"
		},
		{
			"bufferView":2,
			"componentType":5126,
			"count":65822,
			"type":"VEC2"
		},
		{
			"bufferView":3,
			"componentType":5125,
			"count":260679,
			"type":"SCALAR"
		},
		{
			"bufferView":4,
			"componentType":5126,
			"count":65835,
			"max":[
				0.07188387215137482,
				0.048824962228536606,
				0.06798938661813736
			],
			"min":[
				-0.08956538885831833,
				-0.04988444223999977,
				-0.08017903566360474
			],
			"type":"VEC3"
		},
		{
			"bufferView":5,
			"componentType":5126,
			"count":65835,
			"type":"VEC3"
		},
		{
			"bufferView":6,
			"componentType":5126,
			"count":65835,
			"type":"VEC2"
		},
		{
			"bufferView":7,
			"componentType":5125,
			"count":261078,
			"type":"SCALAR"
		},
		{
			"bufferView":8,
			"componentType":5126,
			"count":65807,
			"max":[
				0.07051962614059448,
				0.048352621495723724,
				0.06825476139783859
			],
			"min":[
				-0.09508873522281647,
				-0.050504423677921295,
				-0.07946490496397018
			],
			"type":"VEC3"
		},
		{
			"bufferView":9,
			"componentType":5126,
			"count":65807,
			"type":"VEC3"
		},
		{
			"bufferView":10,
			"componentType":5126,
			"count":65807,
			"type":"VEC2"
		},
		{
			"bufferView":11,
			"componentType":5125,
			"count":245463,
			"type":"SCALAR"
		},
		{
			"bufferView":12,
			"componentType":5126,
			"count":65816,
			"max":[
				0.07268213480710983,
				0.050136715173721313,
				0.0686163529753685
			],
			"min":[
				-0.09769070893526077,
				-0.0506114736199379,
				-0.08275718241930008
			],
			"type":"VEC3"
		},
		{
			"bufferView":13,
			"componentType":5126,
			"count":65816,
			"type":"VEC3"
		},
		{
			"bufferView":14,
			"componentType":5126,
			"count":65816,
			"type":"VEC2"
		},
		{
			"bufferView":15,
			"componentType":5125,
			"count":228594,
			"type":"SCALAR"
		},
		{
			"bufferView":16,
			"componentType":5126,
			"count":65736,
			"max":[
				0.07003304362297058,
				0.050366129726171494,
				0.06724561750888824
			],
			"min":[
				-0.09715455770492554,
				-0.04860818013548851,
				-0.08218345046043396
			],
			"type":"VEC3"
		},
		{
			"bufferView":17,
			"componentType":5126,
			"count":65736,
			"type":"VEC3"
		},
		{
			"bufferView":18,
			"componentType":5126,
			"count":65736,
			"type":"VEC2"
		},
		{
			"bufferView":19,
			"componentType":5125,
			"count":208095,
			"type":"SCALAR"
		},
		{
			"bufferView":20,
			"componentType":5126,
			"count":65730,
			"max":[
				0.07213370501995087,
				0.050366129726171494,
				0.07084392756223679
			],
			"min":[
				-0.09799642115831375,
				-0.05193478986620903,
				-0.08392608165740967
			],
			"type":"VEC3"
		},
		{
			"bufferView":21,
			"componentType":5126,
			"count":65730,
			"type":"VEC3"
		},
		{
			"bufferView":22,
			"componentType":5126,
			"count":65730,
			"type":"VEC2"
		},
		{
			"bufferView":23,
			"componentType":5125,
			"count":188220,
			"type":"SCALAR"
		},
		{
			"bufferView":24,
			"componentType":5126,
			"count":65715,
			"max":[
				0.07289527356624603,
				0.04969426989555359,
				0.06885182857513428
			],
			"min":[
				-0.09802443534135818,
				-0.05182968080043793,
				-0.08290363103151321
			],
			"type":"VEC3"
		},
		{
			"bufferView":25,
			"componentType":5126,
			"count":65715,
			"type":"VEC3"
		},
		{
			"bufferView":26,
			"componentType":5126,
			"count":65715,
			"type":"VEC2"
		},
		{
			"bufferView":27,
			"componentType":5125,
			"count":167202,
			"type":"SCALAR"
		},
		{
			"bufferView":28,
			"componentType":5126,
			"count":65848,
			"max":[
				0.0729006752371788,
				0.048529475927352905,
				0.07080839574337006
			],
			"min":[
				-0.09741590917110443,
				-0.051390670239925385,
				-0.08165350556373596
			],
			"type":"VEC3"
		},
		{
			"bufferView":29,
			"componentType":5126,
			"count":65848,
			"type":"VEC3"
		},
		{
			"bufferView":30,
			"componentType":5126,
			"count":65848,
			"type":"VEC2"
		},
		{
			"bufferView":31,
			"componentType":5125,
			"count":140979,
			"type":"SCALAR"
		},
		{
			"bufferView":32,
			"componentType":5126,
			"count":66028,
			"max":[
				0.07240470498800278,
				0.04880434647202492,
				0.07102710008621216
			],
			"min":[
				-0.049101635813713074,
				-0.048726681619882584,
				-0.07650981843471527
			],
			"type":"VEC3"
		},
		{
			"bufferView":33,
			"componentType":5126,
			"count":66028,
			"type":"VEC3"
		},
		{
			"bufferView":34,
			"componentType":5126,
			"count":66028,
			"type":"VEC2"
		},
		{
			"bufferView":35,
			"componentType":5125,
			"count":126744,
			"type":"SCALAR"
		},
		{
			"bufferView":36,
			"componentType":5126,
			"count":66119,
			"max":[
				0.00850207544863224,
				0.05044994130730629,
				0.0264650397002697
			],
			"min":[
				-0.09796996414661407,
				-0.05193478986620903,
				-0.07880902290344238
			],
			"type":"VEC3"
		},
		{
			"bufferView":37,
			"componentType":5126,
			"count":66119,
			"type":"VEC3"
		},
		{
			"bufferView":38,
			"componentType":5126,
			"count":66119,
			"type":"VEC2"
		},
		{
			"bufferView":39,
			"componentType":5125,
			"count":128100,
			"type":"SCALAR"
		},
		{
			"bufferView":40,
			"componentType":5126,
			"count":66012,
			"max":[
				0.07218746840953827,
				0.049653228372335434,
				0.07001127302646637
			],
			"min":[
				-0.09430315345525742,
				-0.050520289689302444,
				-0.08381141722202301
			],
			"type":"VEC3"
		},
		{
			"bufferView":41,
			"componentType":5126,
			"count":66012,
			"type":"VEC3"
		},
		{
			"bufferView":42,
			"componentType":5126,
			"count":66012,
			"type":"VEC2"
		},
		{
			"bufferView":43,
			"componentType":5125,
			"count":120621,
			"type":"SCALAR"
		},
		{
			"bufferView":44,
			"componentType":5126,
			"count":65827,
			"max":[
				0.07280949503183365,
				0.04990535229444504,
				0.06854145228862762
			],
			"min":[
				-0.09791689366102219,
				-0.051794715225696564,
				-0.08381141722202301
			],
			"type":"VEC3"
		},
		{
			"bufferView":45,
			"componentType":5126,
			"count":65827,
			"type":"VEC3"
		},
		{
			"bufferView":46,
			"componentType":5126,
			"count":65827,
			"type":"VEC2"
		},
		{
			"bufferView":47,
			"componentType":5125,
			"count":86412,
			"type":"SCALAR"
		},
		{
			"bufferView":48,
			"componentType":5126,
			"count":16455,
			"max":[
				0.07210728526115417,
				0.049265556037425995,
				0.06857100129127502
			],
			"min":[
				-0.0965336412191391,
				-0.05036112666130066,
				-0.08325642347335815
			],
			"type":"VEC3"
		},
		{
			"bufferView":49,
			"componentType":5126,
			"count":16455,
			"type":"VEC3"
		},
		{
			"bufferView":50,
			"componentType":5126,
			"count":16455,
			"type":"VEC2"
		},
		{
			"bufferView":51,
			"componentType":5123,
			"count":18810,
			"type":"SCALAR"
		},
		{
			"bufferView":52,
			"componentType":5126,
			"count":65818,
			"max":[
				0.0729006752371788,
				0.050189416855573654,
				0.0703883022069931
			],
			"min":[
				-0.09802443534135818,
				-0.04722651094198227,
				-0.08392608165740967
			],
			"type":"VEC3"
		},
		{
			"bufferView":53,
			"componentType":5126,
			"count":65818,
			"type":"VEC3"
		},
		{
			"bufferView":54,
			"componentType":5126,
			"count":65818,
			"type":"VEC2"
		},
		{
			"bufferView":55,
			"componentType":5125,
			"count":283164,
			"type":"SCALAR"
		},
		{
			"bufferView":56,
			"componentType":5126,
			"count":65823,
			"max":[
				0.07240470498800278,
				0.05025554448366165,
				0.06435439735651016
			],
			"min":[
				-0.09797246754169464,
				-0.04911917820572853,
				-0.08392608165740967
			],
			"type":"VEC3"
		},
		{
			"bufferView":57,
			"componentType":5126,
			"count":65823,
			"type":"VEC3"
		},
		{
			"bufferView":58,
			"componentType":5126,
			"count":65823,
			"type":"VEC2"
		},
		{
			"bufferView":59,
			"componentType":5125,
			"count":273717,
			"type":"SCALAR"
		},
		{
			"bufferView":60,
			"componentType":5126,
			"count":65857,
			"max":[
				0.07289527356624603,
				0.04982168227434158,
				0.06910605728626251
			],
			"min":[
				-0.09747006744146347,
				-0.0507880300283432,
				-0.08327211439609528
			],
			"type":"VEC3"
		},
		{
			"bufferView":61,
			"componentType":5126,
			"count":65857,
			"type":"VEC3"
		},
		{
			"bufferView":62,
			"componentType":5126,
			"count":65857,
			"type":"VEC2"
		},
		{
			"bufferView":63,
			"componentType":5125,
			"count":263130,
			"type":"SCALAR"
		},
		{
			"bufferView":64,
			"componentType":5126,
			"count":65841,
			"max":[
				0.0723024308681488,
				0.04995264112949371,
				0.07102710008621216
			],
			"min":[
				-0.09741590917110443,
				-0.048755861818790436,
				-0.08310732245445251
			],
			"type":"VEC3"
		},
		{
			"bufferView":65,
			"componentType":5126,
			"count":65841,
			"type":"VEC3"
		},
		{
			"bufferView":66,
			"componentType":5126,
			"count":65841,
			"type":"VEC2"
		},
		{
			"bufferView":67,
			"componentType":5125,
			"count":256377,
			"type":"SCALAR"
		}
	],
	"bufferViews":[
		{
			"buffer":0,
			"byteLength":789864,
			"byteOffset":0,
			"target":34962
		},
		{
			"buffer":0,
			"byteLength":789864,
			"byteOffset":789864,
			"target":34962
		},
		{
			"buffer":0,
			"byteLength":526576,
			"byteOffset":1579728,
			"target":34962
		},
		{
			"buffer":0,
			"byteLength":1042716,
			"byteOffset":2106304,
			"target":34963
		},
		{
			"buffer":0,
			"byteLength":790020,
			"byteOffset":3149020,
			"target":34962
		},
		{
			"buffer":0,
			"byteLength":790020,
			"byteOffset":3939040,
			"target":34962
		},
		{
			"buffer":0,
			"byteLength":526680,
			"byteOffset":4729060,
			"target":34962
		},
		{
			"buffer":0,
			"byteLength":1044312,
			"byteOffset":5255740,
			"target":34963
		},
		{
			"buffer":0,
			"byteLength":789684,
			"byteOffset":6300052,
			"target":34962
		},
		{
			"buffer":0,
			"byteLength":789684,
			"byteOffset":7089736,
			"target":34962
		},
		{
			"buffer":0,
			"byteLength":526456,
			"byteOffset":7879420,
			"target":34962
		},
		{
			"buffer":0,
			"byteLength":981852,
			"byteOffset":8405876,
			"target":34963
		},
		{
			"buffer":0,
			"byteLength":789792,
			"byteOffset":9387728,
			"target":34962
		},
		{
			"buffer":0,
			"byteLength":789792,
			"byteOffset":10177520,
			"target":34962
		},
		{
			"buffer":0,
			"byteLength":526528,
			"byteOffset":10967312,
			"target":34962
		},
		{
			"buffer":0,
			"byteLength":914376,
			"byteOffset":11493840,
			"target":34963
		},
		{
			"buffer":0,
			"byteLength":788832,
			"byteOffset":12408216,
			"target":34962
		},
		{
			"buffer":0,
			"byteLength":788832,
			"byteOffset":13197048,
			"target":34962
		},
		{
			"buffer":0,
			"byteLength":525888,
			"byteOffset":13985880,
			"target":34962
		},
		{
			"buffer":0,
			"byteLength":832380,
			"byteOffset":14511768,
			"target":34963
		},
		{
			"buffer":0,
			"byteLength":788760,
			"byteOffset":15344148,
			"target":34962
		},
		{
			"buffer":0,
			"byteLength":788760,
			"byteOffset":16132908,
			"target":34962
		},
		{
			"buffer":0,
			"byteLength":525840,
			"byteOffset":16921668,
			"target":34962
		},
		{
			"buffer":0,
			"byteLength":752880,
			"byteOffset":17447508,
			"target":34963
		},
		{
			"buffer":0,
			"byteLength":788580,
			"byteOffset":18200388,
			"target":34962
		},
		{
			"buffer":0,
			"byteLength":788580,
			"byteOffset":18988968,
			"target":34962
		},
		{
			"buffer":0,
			"byteLength":525720,
			"byteOffset":19777548,
			"target":34962
		},
		{
			"buffer":0,
			"byteLength":668808,
			"byteOffset":20303268,
			"target":34963
		},
		{
			"buffer":0,
			"byteLength":790176,
			"byteOffset":20972076,
			"target":34962
		},
		{
			"buffer":0,
			"byteLength":790176,
			"byteOffset":21762252,
			"target":34962
		},
		{
			"buffer":0,
			"byteLength":526784,
			"byteOffset":22552428,
			"target":34962
		},
		{
			"buffer":0,
			"byteLength":563916,
			"byteOffset":23079212,
			"target":34963
		},
		{
			"buffer":0,
			"byteLength":792336,
			"byteOffset":23643128,
			"target":34962
		},
		{
			"buffer":0,
			"byteLength":792336,
			"byteOffset":24435464,
			"target":34962
		},
		{
			"buffer":0,
			"byteLength":528224,
			"byteOffset":25227800,
			"target":34962
		},
		{
			"buffer":0,
			"byteLength":506976,
			"byteOffset":25756024,
			"target":34963
		},
		{
			"buffer":0,
			"byteLength":793428,
			"byteOffset":26263000,
			"target":34962
		},
		{
			"buffer":0,
			"byteLength":793428,
			"byteOffset":27056428,
			"target":34962
		},
		{
			"buffer":0,
			"byteLength":528952,
			"byteOffset":27849856,
			"target":34962
		},
		{
			"buffer":0,
			"byteLength":512400,
			"byteOffset":28378808,
			"target":34963
		},
		{
			"buffer":0,
			"byteLength":792144,
			"byteOffset":28891208,
			"target":34962
		},
		{
			"buffer":0,
			"byteLength":792144,
			"byteOffset":29683352,
			"target":34962
		},
		{
			"buffer":0,
			"byteLength":528096,
			"byteOffset":30475496,
			"target":34962
		},
		{
			"buffer":0,
			"byteLength":482484,
			"byteOffset":31003592,
			"target":34963
		},
		{
			"buffer":0,
			"byteLength":789924,
			"byteOffset":31486076,
			"target":34962
		},
		{
			"buffer":0,
			"byteLength":789924,
			"byteOffset":32276000,
			"target":34962
		},
		{
			"buffer":0,
			"byteLength":526616,
			"byteOffset":33065924,
			"target":34962
		},
		{
			"buffer":0,
			"byteLength":345648,
			"byteOffset":33592540,
			"target":34963
		},
		{
			"buffer":0,
			"byteLength":197460,
			"byteOffset":33938188,
			"target":34962
		},
		{
			"buffer":0,
			"byteLength":197460,
			"byteOffset":34135648,
			"target":34962
		},
		{
			"buffer":0,
			"byteLength":131640,
			"byteOffset":34333108,
			"target":34962
		},
		{
			"buffer":0,
			"byteLength":37620,
			"byteOffset":34464748,
			"target":34963
		},
		{
			"buffer":0,
			"byteLength":789816,
			"byteOffset":34502368,
			"target":34962
		},
		{
			"buffer":0,
			"byteLength":789816,
			"byteOffset":35292184,
			"target":34962
		},
		{
			"buffer":0,
			"byteLength":526544,
			"byteOffset":36082000,
			"target":34962
		},
		{
			"buffer":0,
			"byteLength":1132656,
			"byteOffset":36608544,
			"target":34963
		},
		{
			"buffer":0,
			"byteLength":789876,
			"byteOffset":37741200,
			"target":34962
		},
		{
			"buffer":0,
			"byteLength":789876,
			"byteOffset":38531076,
			"target":34962
		},
		{
			"buffer":0,
			"byteLength":526584,
			"byteOffset":39320952,
			"target":34962
		},
		{
			"buffer":0,
			"byteLength":1094868,
			"byteOffset":39847536,
			"target":34963
		},
		{
			"buffer":0,
			"byteLength":790284,
			"byteOffset":40942404,
			"target":34962
		},
		{
			"buffer":0,
			"byteLength":790284,
			"byteOffset":41732688,
			"target":34962
		},
		{
			"buffer":0,
			"byteLength":526856,
			"byteOffset":42522972,
			"target":34962
		},
		{
			"buffer":0,
			"byteLength":1052520,
			"byteOffset":43049828,
			"target":34963
		},
		{
			"buffer":0,
			"byteLength":790092,
			"byteOffset":44102348,
			"target":34962
		},
		{
			"buffer":0,
			"byteLength":790092,
			"byteOffset":44892440,
			"target":34962
		},
		{
			"buffer":0,
			"byteLength":526728,
			"byteOffset":45682532,
			"target":34962
		},
		{
			"buffer":0,
			"byteLength":1025508,
			"byteOffset":46209260,
			"target":34963
		}
	],
	"samplers":[
		{
			"magFilter":9729,
			"minFilter":9987
		}
	],
	"buffers":[
		{
			"byteLength":47234768,
			"uri":"scene.bin"
		}
	]
}
